<svg xmlns="http://www.w3.org/2000/svg" viewBox="0 0 198.92775 72.44189">
  <defs>
    <style>
      .cls-1 {
        fill: #ebecea;
      }
    </style>
  </defs>
  <g id="Layer_2" data-name="Layer 2">
    <g id="Layer_2-2" data-name="Layer 2">
      <g>
        <g id="Trading">
          <path class="cls-1" d="M47.96877,34.4082H68.02346v4.42627H60.7383V61.74854H55.2549V38.83447H47.96877Z"/>
          <path class="cls-1" d="M77.503,61.74854h-5.4834V40.04883H77.503v3.36865a7.52528,7.52528,0,0,1,6.6582-3.68213v5.75781H82.71193c-3.251,0-5.209,1.25342-5.209,5.44483Z"/>
          <path class="cls-1" d="M96.34279,39.69629a8.58009,8.58009,0,0,1,7.168,3.44678V40.04883h5.52344V61.74854l-5.52344-3.17286h0a8.55614,8.55614,0,0,1-7.207,3.52539c-5.4834,0-9.87012-4.50439-9.87012-11.28076S90.82033,39.69629,96.34279,39.69629ZM97.753,44.51416c-2.9375,0-5.71875,2.19336-5.71875,6.30615S94.81545,57.2832,97.753,57.2832c3.0166,0,5.75781-2.272,5.75781-6.38476S100.76955,44.51416,97.753,44.51416Z"/>
          <path class="cls-1" d="M122.93849,39.69629a8.90353,8.90353,0,0,1,7.08985,3.36865V32.76318h5.5625V61.74854h-5.5625V58.53662a8.20038,8.20038,0,0,1-7.12891,3.56445c-5.52246,0-9.90918-4.50439-9.90918-11.28076S117.377,39.69629,122.93849,39.69629Zm1.3711,4.81787c-2.9375,0-5.71875,2.19336-5.71875,6.30615s2.78125,6.46289,5.71875,6.46289c3.0166,0,5.75781-2.272,5.75781-6.38476S127.32619,44.51416,124.30959,44.51416Z"/>
          <path class="cls-1" d="M140.36916,34.25146a3.37247,3.37247,0,1,1,3.36816,3.21192A3.21532,3.21532,0,0,1,140.36916,34.25146Zm.58789,5.79737h5.4834V61.74854h-5.4834Z"/>
          <path class="cls-1" d="M167.043,49.7627c0-3.48584-1.91895-5.36622-4.81739-5.36622-2.97753,0-4.89648,1.88038-4.89648,5.36622V61.74854h-5.4834V40.04883h5.4834v2.70263a8.10487,8.10487,0,0,1,6.541-3.01611c5.05273,0,8.65625,3.29,8.65625,9.2832v14.7779l-5.48466-3.17285Z"/>
          <path class="cls-1" d="M186.23635,39.69629a8.48906,8.48906,0,0,1,7.168,3.44678h0l5.52343-3.09424V61.90527c0,5.87549-3.60351,10.53662-10.73242,10.53662-6.11035,0-10.37988-3.05517-10.92871-8.02978H182.711c.54882,1.9585,2.58593,3.251,5.32714,3.251,3.01661,0,5.36622-1.72364,5.36622-5.75782V58.53662a8.55656,8.55656,0,0,1-7.168,3.56445c-5.52246,0-9.90918-4.50439-9.90918-11.28076S180.71389,39.69629,186.23635,39.69629Zm1.41015,4.81787c-2.9375,0-5.71875,2.19336-5.71875,6.30615s2.78125,6.46289,5.71875,6.46289c3.0166,0,5.75782-2.272,5.75782-6.38476S190.6631,44.51416,187.6465,44.51416Z"/>
        </g>
        <g id="Touros">
          <path class="cls-1" d="M47.96877,0H68.02346V4.42627H60.7383V27.34033H55.2549V4.42627H47.96877Z"/>
          <path class="cls-1" d="M81.65432,27.69287c-6.26661,0-11.00586-4.38721-11.00586-11.20264,0-6.85449,4.8955-11.20214,11.16308-11.20214,6.2666,0,11.16309,4.34765,11.16309,11.20214C92.97463,23.30566,87.961,27.69287,81.65432,27.69287Zm0-4.77881c2.89941,0,5.67968-2.11523,5.67968-6.42383,0-4.34765-2.70215-6.42334-5.60058-6.42334S76.21,12.14258,76.21,16.49023C76.21,20.79883,78.71682,22.91406,81.65432,22.91406Z"/>
          <path class="cls-1" d="M133.57073,27.34033l-5.52344-2.7417h0a8.003,8.003,0,0,1-6.46289,3.01612c-5.05274,0-8.69531-3.29053-8.69531-9.24414v-12.73h5.48339V17.5874c0,3.48584,1.91993,5.36572,4.81836,5.36572,2.97657,0,4.85645-1.87988,4.85645-5.36572V5.64062h5.52344Z"/>
          <path class="cls-1" d="M102.29592,27.34033h-5.4834V5.64062h5.4834V9.00928a7.52527,7.52527,0,0,1,6.6582-3.68213V11.085H107.5049c-3.251,0-5.209,1.25342-5.209,5.44483Z"/>
          <path class="cls-1" d="M146.67258,27.69287c-5.44434,0-9.24414-3.17285-9.47949-7.207h5.52344c.19531,1.645,1.72363,2.89844,3.917,2.89844,2.1543,0,3.3291-.97949,3.3291-2.23291,0-3.87744-12.25977-1.40967-12.25977-9.36133,0-3.60352,3.21192-6.50195,8.57813-6.50195,5.24805,0,8.4209,2.85937,8.73437,7.168h-5.249c-.15625-1.68457-1.48828-2.82031-3.64258-2.82031-2.03613,0-3.09375.82276-3.09375,2.07617,0,3.95606,12.02442,1.48829,12.18164,9.43946C155.21164,24.87256,151.95969,27.69287,146.67258,27.69287Z"/>
        </g>
        <g id="Symbol">
          <polygon class="cls-1" points="0 52.512 0 23.786 6.035 20.768 12.071 17.738 12.071 46.595 0 52.512"/>
          <polygon class="cls-1" points="36.236 23.786 36.236 34.524 24.153 40.56 24.153 17.738 30.2 20.768 36.236 23.786"/>
        </g>
      </g>
    </g>
  </g>
</svg>
